<svg id="Layer_1" data-name="Layer 1" xmlns="http://www.w3.org/2000/svg" viewBox="0 0 500 500"><defs><style>.cls-1{fill:#f6b956;}.cls-2{fill:#f8e6c5;}.cls-3{fill:#ee3734;}.cls-4{opacity:0.15;}.cls-5{fill:#88451f;opacity:0.3;}.cls-6{fill:none;stroke:#000;stroke-linecap:round;stroke-linejoin:round;stroke-width:20px;}.cls-7{fill:#fff;}</style></defs><title>cake</title><rect class="cls-1" x="10.74" y="234.38" width="478.52" height="85.6"/><rect class="cls-2" x="10.74" y="319.98" width="478.52" height="52.73"/><rect class="cls-1" x="10.74" y="372.71" width="478.52" height="89.91"/><polygon class="cls-2" points="10.74 233.93 345.65 103.38 488.62 233.93 10.74 233.93"/><path class="cls-3" d="M378.63,122.93c0,29.18-23.66,38.3-52.84,38.3S273,152.11,273,122.93s23.66-85.55,52.84-85.55S378.63,93.75,378.63,122.93Z"/><path class="cls-4" d="M325.79,37.38a23.27,23.27,0,0,0-4.77.56c12.89,19,21.26,45.85,21.26,63.18,0,29.18-23.65,38.3-52.84,38.3a115.21,115.21,0,0,1-13.5-.78c7.19,16.83,26.77,22.59,49.85,22.59,29.18,0,52.84-9.12,52.84-38.3S355,37.38,325.79,37.38Z"/><path class="cls-5" d="M489.26,234.38h-.83C483.82,245,385.47,460,10.74,462.61H489.26Z"/><rect class="cls-6" x="10.74" y="234.38" width="478.52" height="85.6"/><rect class="cls-6" x="10.74" y="319.98" width="478.52" height="52.73"/><rect class="cls-6" x="10.74" y="372.71" width="478.52" height="89.91"/><path class="cls-6" d="M378.63,122.93c0,29.18-23.66,38.3-52.84,38.3S273,152.11,273,122.93s23.66-85.55,52.84-85.55S378.63,93.75,378.63,122.93Z"/><path class="cls-6" d="M406.2,158.67c-5.68,21.92-42.4,41.21-80.72,41.21-41.69,0-81.48-22.83-81.48-47a21.16,21.16,0,0,1,3.1-11L10.74,233.93H488.62Z"/><path class="cls-7" d="M378.6,124.2c-.69,28.16-24.06,37-52.81,37S273.55,152.32,273,124c-17.31,6.1-29,15.75-29,28.86,0,24.21,39.79,47,81.48,47s81.48-22.83,81.48-47C407,139.89,395.57,130.31,378.6,124.2Z"/><path class="cls-6" d="M378.6,124.2c-.69,28.16-24.06,37-52.81,37S273.55,152.32,273,124c-17.31,6.1-29,15.75-29,28.86,0,24.21,39.79,47,81.48,47s81.48-22.83,81.48-47C407,139.89,395.57,130.31,378.6,124.2Z"/></svg>