<svg xmlns="http://www.w3.org/2000/svg" viewBox="0 0 128 128"><defs><style>.cls-1{isolation:isolate;}.cls-2{mix-blend-mode:multiply;}.cls-3,.cls-7{fill:#302a27;}.cls-4{fill:#657ac1;}.cls-5{fill:#fff;}.cls-6{opacity:0.12;}.cls-7,.cls-8{stroke:#302a27;stroke-linecap:round;stroke-linejoin:round;stroke-width:2px;}.cls-8{fill:none;}</style></defs><title>milk</title><g class="cls-1"><g id="icons" class="cls-2"><path class="cls-3" d="M60.408,116c-11.841,0-23.025,0-26.844-14.67A61.388,61.388,0,0,1,32,86V56c0-.711,0-1.4.021-2.062.194-14.263,3.269-16.852,13.9-23.625,3.683-2.344,6.105-4,7.7-5.159A4.009,4.009,0,0,1,55,19.537V16a3,3,0,0,1,3-3H70a3,3,0,0,1,3,3v3.535a3.952,3.952,0,0,1,.843.66A3.9,3.9,0,0,1,75,23a3.973,3.973,0,0,1-.628,2.15c1.449,1.054,3.6,2.533,6.808,4.6.041.022.081.046.12.071l.767.491c.853.543,1.644,1.039,2.385,1.5C93.982,37.786,96,39.554,96,54V86c0,13.554-2.363,21.491-7.663,25.736C83.393,115.7,76.613,116,67.577,116Z"/><path class="cls-3" d="M70,15a1,1,0,0,1,1,1v5a2.015,2.015,0,0,1,2,2,2.006,2.006,0,0,1-2,2h-.08a92.08,92.08,0,0,0,9.29,6.5h.01c.25.16.51.33.78.5,11,7,13,7,13,22V86c0,27.129-9.626,28-26.423,28-1.158,0-2.351,0-3.577,0s-2.428,0-3.591,0c-12.933,0-21.615-.522-24.909-13.174A59.541,59.541,0,0,1,34,86V56c0-.69,0-1.36.02-2C34.2,40.8,36.51,38.68,47,32a97.024,97.024,0,0,0,10.08-7H57a2.015,2.015,0,0,1-2-2,2.006,2.006,0,0,1,2-2V16a1,1,0,0,1,1-1H70m0-4H58a5.006,5.006,0,0,0-5,5v2.531A5.987,5.987,0,0,0,51,23a6.05,6.05,0,0,0,.173,1.443c-1.48,1.034-3.52,2.4-6.321,4.183C33.206,36.042,30.222,39.5,30.021,53.911,30,54.58,30,55.28,30,56V86a63.292,63.292,0,0,0,1.631,15.846C35.838,118,48.329,118,60.409,118l1.752,0L64,118l1.832,0,1.745,0c9.448,0,16.557-.338,22.011-4.707C95.406,108.637,98,100.218,98,86V54c0-15.42-2.589-17.68-12.488-23.884-.737-.462-1.525-.956-2.365-1.49-.177-.112-.334-.213-.488-.312l-.284-.182q-.083-.053-.169-.1c-2.331-1.5-4.077-2.676-5.382-3.588A6,6,0,0,0,77,23a5.917,5.917,0,0,0-1.761-4.239q-.117-.118-.239-.228V16a5.006,5.006,0,0,0-5-5Z"/><g id="_Group_" data-name="&lt;Group&gt;"><path class="cls-4" d="M71,16v5H57V16a1,1,0,0,1,1-1H70A1,1,0,0,1,71,16Z"/><path class="cls-4" d="M94,54V85H34V56c0-.69,0-1.36.02-2Z"/><path class="cls-5" d="M94,85v1c0,29-11,28-30,28-14.92,0-24.91.62-28.5-13.17A59.542,59.542,0,0,1,34,86V85Z"/><path class="cls-5" d="M81,32c11,7,13,7,13,22H34.02C34.2,40.8,36.51,38.68,47,32a97.015,97.015,0,0,0,10.08-7H57a2.015,2.015,0,0,1-2-2,2.006,2.006,0,0,1,2-2H71a2.015,2.015,0,0,1,2,2,2.006,2.006,0,0,1-2,2h-.08a92.071,92.071,0,0,0,9.29,6.5h.01C80.47,31.66,80.73,31.83,81,32Z"/><g class="cls-6"><path class="cls-7" d="M94,54V86c0,29-11,28-30,28-14.92,0-24.91.62-28.5-13.17a12.952,12.952,0,0,1,1.54.16c4.83.79,9.12,3.48,13.82,4.83a47.71,47.71,0,0,0,11.69,1.4c6.64.19,13.84.01,19.09-4.07,6.76-5.27,7.81-14.91,8.31-23.46.38-6.34.72-12.9-1.58-18.81-1.23-3.19-3.22-4.14-3.72-7.52-.46-3.09.38-6.21.67-9.32s-.13-6.62-2.48-8.69C81.61,34.26,80,32,80.19,31.54a.076.076,0,0,1,.02-.04h.01c.25.16.51.33.78.5C92,39,94,39,94,54Z"/><path class="cls-7" d="M71,16v5H66.7a26.327,26.327,0,0,1,.66-6H70A1,1,0,0,1,71,16Z"/></g><path class="cls-8" d="M71,21a2.015,2.015,0,0,1,2,2,2.006,2.006,0,0,1-2,2h-.08a92.071,92.071,0,0,0,9.29,6.5h.01c.25.16.51.33.78.5,11,7,13,7,13,22"/><path class="cls-8" d="M34,56c0-.69,0-1.36.02-2C34.2,40.8,36.51,38.68,47,32a97.015,97.015,0,0,0,10.08-7H57a2.015,2.015,0,0,1-2-2,2.006,2.006,0,0,1,2-2"/><path class="cls-8" d="M94,85v1c0,29-11,28-30,28-14.92,0-24.91.62-28.5-13.17A59.542,59.542,0,0,1,34,86V85"/><path class="cls-8" d="M71,21H57V16a1,1,0,0,1,1-1H70a1,1,0,0,1,1,1Z"/><polygon class="cls-8" points="94 85 34 85 34 56 34 54 34.02 54 94 54 94 85"/></g><path class="cls-5" d="M45.747,63.486a.3.3,0,0,1,.324-.27h.288a.328.328,0,0,1,.306.18l3.961,8.5h.054l3.961-8.5a.311.311,0,0,1,.306-.18h.288a.3.3,0,0,1,.324.27l2.125,12.1a.313.313,0,0,1-.324.414H55.722a.391.391,0,0,1-.342-.27l-1.062-6.824h-.054l-3.151,7.076a.307.307,0,0,1-.306.2h-.324a.323.323,0,0,1-.306-.2L46.99,68.906h-.054L45.891,75.73a.349.349,0,0,1-.324.27H43.947a.33.33,0,0,1-.342-.414Z"/><path class="cls-5" d="M60.057,63.738A.354.354,0,0,1,60.4,63.4h1.674a.354.354,0,0,1,.342.342V75.658a.354.354,0,0,1-.342.342H60.4a.354.354,0,0,1-.342-.342Z"/><path class="cls-5" d="M65.475,63.738a.342.342,0,0,1,.342-.342h1.657a.354.354,0,0,1,.342.342v10.1h4.591a.342.342,0,0,1,.342.342v1.476a.342.342,0,0,1-.342.342h-6.59a.342.342,0,0,1-.342-.342Z"/><path class="cls-5" d="M74.564,63.828A.426.426,0,0,1,75,63.4h1.584a.438.438,0,0,1,.432.432V68.69l4.538-5.114a.43.43,0,0,1,.342-.18h1.8a.383.383,0,0,1,.288.648l-4.7,5.293,5.042,6.032A.4.4,0,0,1,84,76H82.037a.392.392,0,0,1-.324-.126l-4.7-5.8v5.492a.438.438,0,0,1-.432.432H75a.427.427,0,0,1-.432-.432Z"/></g></g></svg>