<svg xmlns="http://www.w3.org/2000/svg" viewBox="0 0 106 106"><defs><style>.cls-1{fill:#70cbf6;}.cls-2{fill:#ff7575;}.cls-3{fill:#fff;}.cls-4{opacity:0.1;}.cls-5{fill:#171c1f;}</style></defs><title>soda-pop</title><g id="Soda-Pop"><g id="Fill"><polygon class="cls-1" points="27 38 35 104 71 104 79 38 27 38"/></g><g id="Red"><polygon class="cls-2" points="29 59 32 79 74 79 77 59 29 59"/></g><g id="White"><rect class="cls-3" x="24" y="31" width="58" height="6"/></g><g id="Shadows" class="cls-4"><path d="M33,84H73V80H33Zm2,18H71v-2H35ZM32,78H74V76H32ZM27,44H79V40H27ZM25,34v2H81V34Z"/></g><g id="Inner_Lines" data-name="Inner Lines"><path class="cls-5" d="M30,58v2H76V58Zm2,22H74V78H32Z"/></g><g id="Outline"><path class="cls-5" d="M81,28H55V18.83L70.41,3.41A2,2,0,1,0,67.59.59h0l-16,16A2,2,0,0,0,51,18V28H25a4,4,0,0,0-4,4v4a4,4,0,0,0,4,4h.23L33,104.24h0A2,2,0,0,0,35,106H71a2,2,0,0,0,2-1.76h0L80.77,40H81a4,4,0,0,0,4-4V32A4,4,0,0,0,81,28ZM69.23,102H36.77L29.26,40H76.74ZM81,36H25V32H81Z"/></g></g></svg>