<svg xmlns="http://www.w3.org/2000/svg" viewBox="0 0 128 128"><defs><style>.cls-1{isolation:isolate;}.cls-2{mix-blend-mode:multiply;}.Graphic-Style-2,.cls-3{fill:#302a27;}.cls-4{fill:#fccc33;}.cls-5{fill:#fff;}.cls-6{opacity:0.12;}.Graphic-Style-2,.cls-7{stroke:#302a27;stroke-linecap:round;stroke-linejoin:round;stroke-width:2px;}.cls-7{fill:none;}.cls-8{opacity:0.24;}</style></defs><title>fried-egg</title><g class="cls-1"><g id="icons" class="cls-2"><path class="cls-3" d="M80,106c-8.027,0-11.872-2.189-14.961-3.947C62.946,100.861,61.433,100,59,100a26.592,26.592,0,0,0-6.954.9A34.757,34.757,0,0,1,43,102c-14.5,0-30-7.618-30-29,0-1.441.064-2.826.189-4.114C14.582,53.911,23.6,49,32.318,44.247c3.767-2.052,7.324-3.991,10.337-6.728l.917-.834C52.931,28.16,59.693,22,75,22c12.079,0,27.706,7.073,35.389,22.875A47.709,47.709,0,0,1,115,66C115,95.347,94.069,106,80,106Z"/><path class="cls-3" d="M75,24c12.23,0,26.54,7.25,33.59,21.75A45.689,45.689,0,0,1,113,66c0,28-20,38-33,38s-14-6-21-6-8,2-16,2c-15,0-28-8-28-27,0-1.38.06-2.69.18-3.92C17.05,48.97,33.63,48.42,44,39c9.95-9.05,16-15,31-15m0-4c-16.082,0-23.084,6.379-32.776,15.207l-.915.833c-2.834,2.574-6.289,4.457-9.948,6.45C22.609,47.26,12.689,52.664,11.2,68.71c-.13,1.335-.2,2.784-.2,4.29,0,10.023,3.381,18.207,9.778,23.667C26.4,101.464,34.082,104,43,104a36.492,36.492,0,0,0,9.505-1.157A24.592,24.592,0,0,1,59,102c1.823,0,2.925.581,5.049,1.791C67.17,105.567,71.443,108,80,108a36.925,36.925,0,0,0,24.06-9.535C109.963,93.119,117,83.146,117,66a49.692,49.692,0,0,0-4.816-22.006C104.126,27.421,87.7,20,75,20Z"/><g id="_Group_" data-name="&lt;Group&gt;"><path class="cls-4" d="M90.82,56.97A16,16,0,1,1,76,47,15.922,15.922,0,0,1,90.82,56.97Z"/><path class="cls-5" d="M108.59,45.75A45.689,45.689,0,0,1,113,66c0,28-20,38-33,38s-14-6-21-6-8,2-16,2c-15,0-28-8-28-27,0-1.38.06-2.69.18-3.92C17.05,48.97,33.63,48.42,44,39c9.95-9.05,16-15,31-15C87.23,24,101.54,31.25,108.59,45.75ZM92,63A16,16,0,1,0,76,79,15.922,15.922,0,0,0,92,63Z"/><g class="cls-6"><path class="Graphic-Style-2" d="M113,66c0,28-20,38-33,38s-14-6-21-6-8,2-16,2c-15,0-28-8-28-27,0-1.38,1.8,15,12,15a12.121,12.121,0,0,1,4.79.93,4.32,4.32,0,0,1,1.19,1.51c1.79,2.86,5.49,3.81,8.86,4,5.68.3,11.33-.89,17-1.31s11.73.01,16.45,3.19a20.444,20.444,0,0,0,3.58,2.28,7.636,7.636,0,0,0,7.22-1.2,12.834,12.834,0,0,0,4.23-6.24c.48-1.4.87-2.97,2.05-3.86a8.7,8.7,0,0,1,3.3-1.1c5.21-1.25,8.98-6,10.6-11.11s1.47-10.57,1.36-15.92c-.09-4.49-.12-9.08.96-13.42A45.69,45.69,0,0,1,113,66Z"/><path class="Graphic-Style-2" d="M92,63a16,16,0,0,1-31.11,5.28,12.165,12.165,0,0,1,3.86,1.46,42.675,42.675,0,0,0,5.38,3.4,11.294,11.294,0,0,0,12.62-2.7c2.29-2.54,3.26-5.96,4.77-9.02a14.116,14.116,0,0,1,3.3-4.45A15.922,15.922,0,0,1,92,63Z"/></g><path class="cls-7" d="M113,66c0,28-20,38-33,38s-14-6-21-6-8,2-16,2c-15,0-28-8-28-27,0-1.38.06-2.69.18-3.92C17.05,48.97,33.63,48.42,44,39c9.95-9.05,16-15,31-15,12.23,0,26.54,7.25,33.59,21.75A45.689,45.689,0,0,1,113,66Z"/><path class="cls-7" d="M92,63a16,16,0,1,1-1.18-6.03A16,16,0,0,1,92,63Z"/></g><g class="cls-8"><circle class="cls-3" cx="41" cy="59" r="2"/><circle class="cls-3" cx="47" cy="86" r="2"/><circle class="cls-3" cx="31" cy="70" r="2"/></g></g></g></svg>