<svg id="Layer_1" data-name="Layer 1" xmlns="http://www.w3.org/2000/svg" viewBox="0 0 500 500"><defs><style>.cls-1{fill:#e44461;}.cls-2{fill:#bc395b;}.cls-3,.cls-4{fill:none;stroke-linecap:round;stroke-linejoin:round;stroke-width:20px;}.cls-3{stroke:#000;}.cls-4{stroke:#fff;}.cls-5{fill:#3bb777;}.cls-6{fill:#239957;}</style></defs><title>cherry</title><path class="cls-1" d="M226.33,383.94a106.63,106.63,0,0,1-213.25-2.86c.79-58.89,48.94-89.29,107.83-88.5S227.12,325.05,226.33,383.94Z"/><path class="cls-2" d="M180.11,306.2c13.82,14.84,22,34.63,21.65,59.25A106.58,106.58,0,0,1,44,457.57a106.59,106.59,0,0,0,182.3-73.63C226.82,347,208.41,320.83,180.11,306.2Z"/><path class="cls-3" d="M226.33,383.94a106.63,106.63,0,0,1-213.25-2.86c.79-58.89,48.94-89.29,107.83-88.5S227.12,325.05,226.33,383.94Z"/><path class="cls-3" d="M152.21,345.89S143,357.26,120.05,357,88.19,345,88.19,345"/><path class="cls-4" d="M59.92,366.52a46.94,46.94,0,0,0,38.21,17.74"/><path class="cls-1" d="M479.07,382.51a106.63,106.63,0,0,1-213.26,0c0-58.89,47.74-89.94,106.63-89.94S479.07,323.62,479.07,382.51Z"/><path class="cls-2" d="M431.82,305.39c14,14.66,22.44,34.34,22.44,59a106.58,106.58,0,0,1-156.48,94.23,106.59,106.59,0,0,0,181.29-76.07C479.07,345.6,460.31,319.64,431.82,305.39Z"/><path class="cls-3" d="M479.07,382.51a106.63,106.63,0,0,1-213.26,0c0-58.89,47.74-89.94,106.63-89.94S479.07,323.62,479.07,382.51Z"/><path class="cls-3" d="M404.45,345.46s-9.09,11.49-32,11.49-32-11.49-32-11.49"/><path class="cls-4" d="M312.45,367.32a46.92,46.92,0,0,0,38.44,17.23"/><path class="cls-3" d="M200.38,101.11C232.61,261.35,119.77,266,119.59,351.2"/><path class="cls-3" d="M372.44,357S302.56,60.82,144.05,85.89"/><path class="cls-5" d="M385.56,43.18C235.31-49,210,85.22,210,85.22S293.36,193.44,385.56,43.18Z"/><path class="cls-6" d="M385.56,43.18,210,85.22S293.36,193.44,385.56,43.18Z"/><path class="cls-3" d="M385.56,43.18C235.31-49,210,85.22,210,85.22S293.36,193.44,385.56,43.18Z"/></svg>