<svg id="icons" xmlns="http://www.w3.org/2000/svg" viewBox="0 0 128 128"><defs><style>.Graphic-Style-7{fill:#f26d40;}.cls-1{fill:#d1392c;}.cls-2{fill:#fff;}.cls-3{fill:none;stroke:#3d344c;stroke-linecap:round;stroke-linejoin:round;stroke-width:4px;}</style></defs><title>grain-bag</title><path class="Graphic-Style-7" d="M102.24,102.81c2.89,3.87,6.83,10.44,3.47,13.81-4.44,4.43-11.26-3.02-15.49-5.37a3.8,3.8,0,0,0-2.5-.39,141.042,141.042,0,0,1-18.84,1.71c-1.56.05-3.19.08-4.88.08a155.666,155.666,0,0,1-20.77-1.34c-1.27-.18-2.27-.33-2.95-.45a3.8,3.8,0,0,0-2.5.39c-4.23,2.35-11.05,9.8-15.49,5.37-3.36-3.37.58-9.94,3.47-13.81a7.955,7.955,0,0,0,1.25-6.89C25.54,90.68,23.29,80.04,23.29,64a133.463,133.463,0,0,1,2.26-25.68c.5-2.57,1.02-4.65,1.46-6.24a7.954,7.954,0,0,0-1.25-6.89c-2.89-3.87-6.83-10.44-3.47-13.81,4.44-4.43,11.26,3.02,15.49,5.37a3.4,3.4,0,0,0,1.42.43,3.93,3.93,0,0,0,1.08-.04A147.807,147.807,0,0,1,64,15.35a147.807,147.807,0,0,1,23.72,1.79,3.8,3.8,0,0,0,2.5-.39c4.23-2.35,11.05-9.8,15.49-5.37,3.36,3.37-.58,9.94-3.47,13.81a7.954,7.954,0,0,0-1.25,6.89,102.634,102.634,0,0,1,3.16,18.57c.35,3.93.56,8.38.56,13.35q0,3.375-.12,6.43a112.513,112.513,0,0,1-3.6,25.49A7.955,7.955,0,0,0,102.24,102.81Z"/><path class="cls-1" d="M43.35,91.03c-2.63-2.16-4.31-4.09-3.52-7.79.36-1.66,1.21-3.11,1.25-4.85.06-2.81-1.48-5.22-3.1-7.38-1.34-1.78-3.03-3.4-4.02-5.41-1.67-3.39-.62-6.74.13-10.18.82-3.77,1.44-7.65-.79-11.08-1.81-2.8-4.87-4.42-7.75-6.02A133.463,133.463,0,0,0,23.29,64c0,1.569.027,3.071.067,4.537-4.52.884-10,4.325-9.053,8.96.368,1.81,1.421,2.647,1.132,4.571a4.247,4.247,0,0,0,.08,2.807c1.135,2.184,5.066,2.968,7.216,3.4a14.794,14.794,0,0,0,2.608.306c.567,3.079,1.164,5.534,1.669,7.336a7.955,7.955,0,0,1-1.25,6.89c-2.89,3.87-6.83,10.44-3.47,13.81,4.44,4.43,11.26-3.02,15.49-5.37a3.8,3.8,0,0,1,2.5-.39c.68.12,1.68.27,2.95.45.1-.54.2-1.14.32-1.79.49-2.62.97-3.74,3.54-4.55a5.381,5.381,0,0,0,2.74-1.55C53.99,98.63,46.45,93.57,43.35,91.03Z"/><path class="cls-2" d="M102.24,102.81a7.955,7.955,0,0,1-1.25-6.89,112.513,112.513,0,0,0,3.6-25.49,16.72,16.72,0,0,0-6.58,4.61,13.692,13.692,0,0,0-3.03,7.76c-.33,2.72-.11,5.71-2.43,7.72-.85.73-2.16.88-3.05,1.65-2.73,2.35-1.64,5.45-2.69,8.45-1.96,5.58-7.22,2.41-11.27,3.64a10.006,10.006,0,0,0-6.66,8.31,141.042,141.042,0,0,0,18.84-1.71,3.8,3.8,0,0,1,2.5.39c4.23,2.35,11.05,9.8,15.49,5.37C109.07,113.25,105.13,106.68,102.24,102.81Z"/><path class="cls-1" d="M102.24,25.19c2.89-3.87,6.83-10.44,3.47-13.81-4.44-4.43-11.26,3.02-15.49,5.37a3.8,3.8,0,0,1-2.5.39A147.807,147.807,0,0,0,64,15.35a147.807,147.807,0,0,0-23.72,1.79,3.93,3.93,0,0,1-1.08.04c1.48,3.71,6.04,5.7,10.87,6.76,4.63,1.02,9.54-.19,14.21-.46,2.56-.14,5.52-.59,8.05-.02,2.81.64,4.74,2.99,7.4,4.01,3.96,1.54,7.4-1.46,11.56.23,3.62,1.47,5.64,5,6.22,8.75.4,2.55-.51,4.86-.33,7.36.28,4.18,3.07,5.43,6.59,6.69.13.05.26.09.38.15a102.634,102.634,0,0,0-3.16-18.57A7.954,7.954,0,0,1,102.24,25.19Z"/><path class="cls-3" d="M25.34,88.58c.56,3.09,1.17,5.53,1.67,7.34a7.954,7.954,0,0,1-1.25,6.89c-2.89,3.87-6.83,10.44-3.47,13.81,4.44,4.43,11.26-3.02,15.49-5.37a3.8,3.8,0,0,1,2.5-.39A147.809,147.809,0,0,0,64,112.65a147.809,147.809,0,0,0,23.72-1.79,3.8,3.8,0,0,1,2.5.39c4.23,2.35,11.05,9.8,15.49,5.37,3.36-3.37-.58-9.94-3.47-13.81a7.954,7.954,0,0,1-1.25-6.89c1.47-5.24,3.72-15.88,3.72-31.92s-2.25-26.68-3.72-31.92a7.954,7.954,0,0,1,1.25-6.89c2.89-3.87,6.83-10.44,3.47-13.81-4.44-4.43-11.26,3.02-15.49,5.37a3.8,3.8,0,0,1-2.5.39A147.809,147.809,0,0,0,64,15.35a147.809,147.809,0,0,0-23.72,1.79,3.8,3.8,0,0,1-2.5-.39c-4.23-2.35-11.05-9.8-15.49-5.37-3.36,3.37.58,9.94,3.47,13.81a7.954,7.954,0,0,1,1.25,6.89C25.54,37.32,23.29,47.96,23.29,64q0,2.34.06,4.53"/><line class="cls-3" x1="64" y1="52" x2="64" y2="92"/><path class="cls-3" d="M52.875,55.875a7.55,7.55,0,0,0,10.25,10.25,7.55,7.55,0,0,0-10.25-10.25Z"/><path class="cls-3" d="M75.125,55.875a7.55,7.55,0,0,1-10.25,10.25,7.55,7.55,0,0,1,10.25-10.25Z"/><path class="cls-3" d="M52.875,72.875a7.55,7.55,0,0,0,10.25,10.25,7.55,7.55,0,0,0-10.25-10.25Z"/><path class="cls-3" d="M75.125,72.875a7.55,7.55,0,0,1-10.25,10.25,7.55,7.55,0,0,1,10.25-10.25Z"/><path class="cls-3" d="M64,36a8.333,8.333,0,0,0,0,16,8.333,8.333,0,0,0,0-16Z"/><path class="cls-1" d="M8.819,89.231c-.889,3.959,6.747,4.067,5.018.4S9.6,85.758,8.819,89.231Z"/></svg>