<svg xmlns="http://www.w3.org/2000/svg" viewBox="0 0 128 128"><defs><style>.cls-1{isolation:isolate;}.cls-2{mix-blend-mode:multiply;}.cls-3{fill:#db3931;}.cls-4{fill:#eacba9;stroke:#191828;stroke-linecap:round;stroke-linejoin:round;stroke-width:2px;}.cls-5{fill:#191828;}</style></defs><title>noodles</title><g class="cls-1"><g id="icons" class="cls-2"><path class="cls-3" d="M99.608,12.081,34.325,27.034a1.533,1.533,0,0,0-1.143,1.79h0a1.525,1.525,0,0,0,1.792,1.2L100.86,17.854a2.954,2.954,0,0,0,2.309-3.475h0A2.939,2.939,0,0,0,99.608,12.081Z"/><path class="cls-3" d="M102.68,27.6,36.293,36.98a1.525,1.525,0,0,1-1.738-1.214h0a1.532,1.532,0,0,1,1.2-1.8L101.639,21.79a2.94,2.94,0,0,1,3.456,2.322h0A2.954,2.954,0,0,1,102.68,27.6Z"/><path class="cls-4" d="M49,22.25V69H43V24.461a1,1,0,0,1,.77-.973Z"/><polygon class="cls-4" points="55 20.83 55 69 49 69 49 22.25 55 20.83"/><path class="cls-4" d="M61,20.674V69H55V20.83L59.77,19.7A1,1,0,0,1,61,20.674Z"/><path class="cls-5" d="M104.951,69.117a2.012,2.012,0,0,0-2-2.117h-77.9a2.012,2.012,0,0,0-2,2.117c.817,17.709,11.726,34.338,23.756,39.347a1.971,1.971,0,0,1,1.2,1.828V114a2,2,0,0,0,2,2H78a2,2,0,0,0,2-2v-3.709a1.971,1.971,0,0,1,1.2-1.828C93.225,103.455,104.134,86.826,104.951,69.117Z"/></g></g></svg>