<svg xmlns="http://www.w3.org/2000/svg" viewBox="0 0 128 128"><defs><style>.cls-1{isolation:isolate;}.cls-2{mix-blend-mode:multiply;}.cls-3{fill:#fcf1e6;stroke:#191828;stroke-linecap:round;stroke-linejoin:round;stroke-width:2px;}.cls-4{fill:#191828;}.cls-5{fill:#db3931;}.cls-6{fill:#3169cb;}</style></defs><title>rice-bowl</title><g class="cls-1"><g id="icons" class="cls-2"><path class="cls-3" d="M108.09,57.382a5.989,5.989,0,0,0-3.647-10.359,5.987,5.987,0,0,0-5.855-9.848,5.991,5.991,0,0,0-8.655-7.324,5.989,5.989,0,0,0-9.955-5.293A5.989,5.989,0,0,0,69.618,20.91a5.992,5.992,0,0,0-11.237,0,5.989,5.989,0,0,0-10.359,3.647,5.977,5.977,0,0,0-9.955,5.293,5.99,5.99,0,0,0-8.655,7.324,5.991,5.991,0,0,0-5.855,9.848A5.989,5.989,0,0,0,19.91,57.382,6,6,0,0,0,22,69h84a6,6,0,0,0,2.09-11.618Z"/><circle class="cls-4" cx="50" cy="36" r="2"/><circle class="cls-5" cx="93" cy="45" r="2"/><circle class="cls-5" cx="36" cy="52" r="2"/><circle class="cls-4" cx="58" cy="47" r="2"/><circle class="cls-4" cx="78" cy="55" r="2"/><path class="cls-4" d="M39.358,103.269a3,3,0,0,1,1.642,2.7A3.036,3.036,0,0,0,44.036,109H83.964A3.036,3.036,0,0,0,87,105.964a3,3,0,0,1,1.642-2.7A49.467,49.467,0,0,0,113.032,77H14.968A49.467,49.467,0,0,0,39.358,103.269Z"/><path class="cls-4" d="M115.988,62.021A1.008,1.008,0,0,0,114.98,61H13.02a1.008,1.008,0,0,0-1.008,1.021A44.6,44.6,0,0,0,12.725,69h102.55A44.6,44.6,0,0,0,115.988,62.021Z"/><path class="cls-6" d="M12.725,69a44.693,44.693,0,0,0,2.243,8h98.064a44.693,44.693,0,0,0,2.243-8Z"/></g></g></svg>