<svg xmlns="http://www.w3.org/2000/svg" viewBox="0 0 128 128"><defs><style>.cls-1{isolation:isolate;}.cls-2{mix-blend-mode:multiply;}.cls-3{fill:#ea659b;}.cls-4{fill:#ff88b6;}</style></defs><title>shrimp</title><g class="cls-1"><g id="icons" class="cls-2"><path class="cls-3" d="M58.5,105h19a.5.5,0,0,0,.38-.82L72.6,97.94l4.83-8.7a.5.5,0,0,0-.63-.7L58,96.46V105Z"/><path class="cls-4" d="M23,68.64l19.17,5.23a16.5,16.5,0,0,1,5.1-7.65L29.78,47C25.58,52.76,23.17,60.12,23,68.64Z"/><path class="cls-4" d="M58,105V96.46l-.1,0a17,17,0,0,1-13.76-8.36L32.64,93.2A33.88,33.88,0,0,0,58,105Z"/><path class="cls-4" d="M95.5,34h-38c-1.19,0-2.36.05-3.5.15V62.93a18.48,18.48,0,0,1,4-.43c31.41,0,38-15.23,38-28A.5.5,0,0,0,95.5,34Z"/><path class="cls-3" d="M23,69.5c0,7.43,3.33,16.56,9.64,23.7l11.5-5.06A19.46,19.46,0,0,1,41.5,78a14,14,0,0,1,.69-4.13L23,68.64C23,68.93,23,69.21,23,69.5Z"/><path class="cls-3" d="M29.78,47,47.29,66.22A15.61,15.61,0,0,1,54,62.93V34.15C43.61,35,35.2,39.64,29.78,47Z"/><circle cx="76" cy="44" r="4"/><path class="cls-3" d="M105,38.23A16,16,0,0,1,89,55H86.81A23,23,0,0,0,91,50.84a12,12,0,0,0,10-12.42A12.19,12.19,0,0,0,88.6,27H61a13.94,13.94,0,0,1-9.9-4.1l-.48-.49a2,2,0,1,1,2.82-2.82l.49.48A9.93,9.93,0,0,0,61,23H88.6A16.18,16.18,0,0,1,105,38.23Z"/><path class="cls-3" d="M67,69v9a2,2,0,0,1-4,0V69.83l-7.19-7.2A17.2,17.2,0,0,1,58,62.5c1.12,0,2.2,0,3.26-.06l5.15,5.15A2,2,0,0,1,67,69Z"/><path class="cls-3" d="M75,67v9a2,2,0,0,1-4,0V67.83l-5.64-5.64c1.77-.15,3.44-.37,5-.64l4,4A2,2,0,0,1,75,67Z"/><path class="cls-3" d="M83,65v9a2,2,0,0,1-4,0V65.83l-5-5a40,40,0,0,0,4.35-1.29l4.07,4.07A2,2,0,0,1,83,65Z"/></g></g></svg>