<?xml version="1.0" ?><svg id="Layer_1" style="enable-background:new 0 0 444.832 444.832;" version="1.1" viewBox="0 0 444.832 444.832" xml:space="preserve" xmlns="http://www.w3.org/2000/svg" xmlns:xlink="http://www.w3.org/1999/xlink"><g id="Mortar_x5F_pestle"><path d="M217.086,369.581L217.086,369.581c-19.997,7.278-41.937-4.13-47.464-24.68   l-35.901-133.483c-11.23-41.754-23.305-83.53-45.578-120.589L73.279,66.096c-4.195-6.981-0.982-16.055,6.671-18.84l35.002-12.74   c7.653-2.785,15.947,2.101,17.22,10.145l4.511,28.501c6.76,42.706,24.363,82.47,42.599,121.674l58.3,125.33   C246.557,339.461,237.083,362.303,217.086,369.581z" id="XMLID_142_" style="fill:#C66F58;"/><path d="M305.188,436.41H154.553l3.657-9.329c10.067-25.68,9.504-54.309-1.563-79.574   L91.377,198.515h276.986l-68.111,136.231C284.039,367.173,285.91,405.707,305.188,436.41L305.188,436.41z" id="XMLID_431_" style="fill:#D89484;"/><path d="M284.385,45.988c13.678,11.477,31.268,15.208,47.462,11.685   c0.657-16.56-6.072-33.235-19.749-44.712C298.42,1.484,280.83-2.246,264.636,1.276C263.979,17.836,270.708,34.511,284.385,45.988z" id="XMLID_279_" style="fill:#BBEF84;"/><path d="M331.722,57.822c0.838-16.775-6.072-33.235-19.749-44.712   C298.295,1.634,280.885-2.312,264.511,1.425L331.722,57.822z" id="XMLID_278_" style="fill:#68B264;"/><path d="M335.345,154.466c-13.678,11.477-31.268,15.208-47.462,11.685   c-0.657-16.56,6.072-33.235,19.749-44.712c13.678-11.477,31.268-15.208,47.462-11.685   C355.751,126.314,349.023,142.989,335.345,154.466z" id="XMLID_277_" style="fill:#BBEF84;"/><path d="M288.009,166.3c-0.838-16.775,6.072-33.235,19.749-44.712   c13.678-11.477,31.087-15.423,47.462-11.685L288.009,166.3z" id="XMLID_212_" style="fill:#68B264;"/><path d="M254.335,121.721c3.574-9.82,1.23-20.369-5.067-27.79   c-4.18-4.926-5.579-11.629-3.37-17.7l0.164-0.45l-9.272-3.375l-0.164,0.45c-2.21,6.071-7.59,10.306-13.958,11.393   c-9.594,1.637-18.17,8.211-21.744,18.031c-4.196,11.527-0.237,24.059,8.7,31.356c2.235,1.825,3.123,4.827,2.137,7.538l0,0   l9.272,3.375l0,0c0.987-2.711,3.598-4.44,6.482-4.401C239.051,140.303,250.14,133.248,254.335,121.721z" id="XMLID_240_" style="fill:#EF5B62;"/><path d="M364.987,210.18H94.754c-4.632,0-8.422-3.79-8.422-8.422v0   c0-4.632,3.79-8.422,8.422-8.422h270.233c4.632,0,8.422,3.79,8.422,8.422v0C373.409,206.39,369.619,210.18,364.987,210.18z" id="XMLID_71_" style="fill:#F3CFAD;"/><path d="M306.665,444.832H153.076c-4.632,0-8.422-3.79-8.422-8.422v0   c0-4.632,3.79-8.422,8.422-8.422h153.589c4.632,0,8.422,3.79,8.422,8.422v0C315.087,441.042,311.297,444.832,306.665,444.832z" id="XMLID_73_" style="fill:#F3CFAD;"/><path d="M99.862,112.569c0.438,0.905,0.87,1.811,1.299,2.72l41.273-15.022   c-0.256-0.972-0.507-1.944-0.753-2.919L99.862,112.569z" id="XMLID_902_" style="fill:#F3CFAD;"/><path d="M104.559,122.742l40.027-14.568l-1.026-2.819l-40.227,14.641   C103.745,120.909,104.155,121.824,104.559,122.742z" id="XMLID_341_" style="fill:#F3CFAD;"/><path d="M293.793,411.416H162.957c-0.22,1.002-0.452,2.003-0.702,3h132.501   C294.421,413.42,294.099,412.42,293.793,411.416z" id="XMLID_1147_" style="fill:#63382C;"/></g><g/><g/><g/><g/><g/><g/><g/><g/><g/><g/><g/><g/><g/><g/><g/></svg>