<?xml version="1.0" ?><svg style="enable-background:new 0 0 445.827 446.307;" version="1.1" viewBox="0 0 445.827 446.307" xml:space="preserve" xmlns="http://www.w3.org/2000/svg" xmlns:xlink="http://www.w3.org/1999/xlink"><g id="Sugar"><polygon points="237.865,37.503 209.156,31.353 23.142,380.265 46.864,402.777  " style="fill:#FDBB03;"/><polygon points="385.669,37.503 356.961,31.353 170.947,380.265 194.668,402.777  " style="fill:#FDBB03;"/><path d="M443.382,43.941c-2.91-4.262-7.904-6.586-13.048-6.068l-15.396,1.579l-7.646-13.453   c-2.752-4.853-8.113-7.615-13.666-7.042l-15.351,1.586L370.663,7.12c-2.55-4.486-7.183-7.2-12.509-7.118   c-5.158,0.103-9.85,3.024-12.214,7.612l-196.09,380.392c-2.365,4.585-2.025,10.097,0.882,14.359   c2.907,4.266,7.928,6.589,13.048,6.068l15.399-1.582l7.646,13.457c2.752,4.853,8.144,7.619,13.666,7.039l15.351-1.582l7.609,13.419   c2.498,4.407,7.173,7.125,12.228,7.125c0.093,0,0.185,0,0.281-0.003c5.158-0.103,9.85-3.027,12.214-7.615L444.264,58.3   C446.629,53.715,446.289,48.203,443.382,43.941z M255.084,363.927l-48.346-24.923L337.811,84.747l48.344,24.919L255.084,363.927z    M235.057,402.777c-2.629-3.758-6.936-5.999-11.518-5.999c-0.48,0-0.964,0.024-1.448,0.076l-15.358,1.586l-7.643-13.45   c-2.54-4.475-7.046-7.152-12.389-7.114l10.375-20.125l48.346,24.923L235.057,402.777z M395.816,90.924l-48.342-24.923   l11.586-22.476c2.907,4.156,7.873,6.462,12.966,5.927l15.358-1.586l7.643,13.45c2.54,4.475,7.207,7.183,12.386,7.114   L395.816,90.924z" style="fill:#352517;"/><path d="M295.092,43.941c-2.91-4.262-7.897-6.586-13.048-6.064l-15.396,1.579l-7.646-13.457   c-2.752-4.853-8.11-7.615-13.666-7.039l-15.351,1.586l-7.612-13.422c-2.546-4.489-7.228-7.204-12.509-7.121   c-5.158,0.106-9.85,3.027-12.214,7.615L1.562,388.006c-2.365,4.585-2.025,10.097,0.882,14.359c2.91,4.266,7.935,6.589,13.048,6.068   l15.396-1.579l7.646,13.457c2.752,4.849,8.147,7.622,13.666,7.039l15.351-1.586l7.609,13.419c2.498,4.41,7.173,7.125,12.228,7.125   c0.093,0,0.185,0,0.281-0.003c5.158-0.103,9.85-3.024,12.214-7.612L295.974,58.3C298.339,53.715,297.999,48.203,295.092,43.941z    M106.792,363.927l-48.34-24.919L189.521,84.747l48.344,24.923L106.792,363.927z M86.763,402.78   c-2.625-3.761-6.933-6.002-11.514-6.002c-0.48,0-0.964,0.027-1.448,0.076l-15.358,1.586l-7.643-13.45   c-2.536-4.472-7.121-7.152-12.386-7.111l10.375-20.128l48.34,24.923L86.763,402.78z M247.525,90.924l-48.342-24.919l11.586-22.479   c2.903,4.156,7.852,6.462,12.966,5.927l15.358-1.586l7.643,13.453c2.54,4.472,7.447,7.18,12.386,7.111L247.525,90.924z" style="fill:#352517;"/><path d="M270.112,292.631h-0.003c-3.291-1.695-6.373-1.623-9.053-0.233   c-1.242,0.642-2.488,1.555-3.696,2.708c-1.146,1.084-2.33,2.347-3.528,3.755c-0.944,1.067-1.63,1.826-2.066,2.275   c-0.354,0.367-0.772,0.714-1.232,1.026c-0.364,0.244-0.7,0.391-1.012,0.446c-0.12,0.021-0.302,0.027-0.587-0.124   c-0.165-0.082-0.542-0.278-0.686-1.225c-0.124-0.844,0.106-1.843,0.683-2.962c0.807-1.565,1.462-2.025,1.781-2.162   c0.721-0.302,1.637-0.446,2.742-0.415c1.136-0.017,2.018-0.141,2.697-0.371c0.937-0.319,1.689-1.023,2.234-2.083   c0.597-1.157,0.662-2.413,0.185-3.645c-0.456-1.16-1.225-2.025-2.279-2.567c-0.975-0.504-2.097-0.769-3.332-0.793   c-1.126-0.014-2.498,0.244-3.847,0.796c-1.332,0.546-2.629,1.417-3.854,2.598c-1.205,1.16-2.303,2.698-3.274,4.578   c-1.201,2.33-1.912,4.595-2.111,6.737c-0.206,2.262,0.154,4.29,1.074,6.03c0.93,1.774,2.341,3.157,4.194,4.111   c1.939,0.999,3.857,1.359,5.742,1.067c1.781-0.281,3.473-1.033,5.028-2.238c1.414-1.102,2.927-2.591,4.506-4.444   c1.067-1.263,1.966-2.248,2.697-2.951c0.573-0.553,1.146-0.909,1.75-1.095c0.271-0.079,0.697-0.148,1.369,0.199   c0.45,0.23,0.992,0.645,1.184,1.802c0.178,1.06-0.079,2.268-0.762,3.593c-0.487,0.944-1.026,1.644-1.562,2.025   c-0.532,0.381-1.05,0.601-1.575,0.669c-0.683,0.089-1.496,0.086-2.413,0c-1.16-0.124-2.183-0.027-3.034,0.281   c-0.999,0.371-1.795,1.081-2.306,2.066c-0.587,1.15-0.697,2.375-0.305,3.562c0.391,1.153,1.174,2.059,2.255,2.615   c1.198,0.618,2.581,0.93,4.122,0.93c0.36,0,0.728-0.017,1.102-0.051c1.936-0.175,3.744-0.783,5.378-1.819   c2.217-1.414,4.132-3.665,5.69-6.685c1.29-2.502,2.008-4.945,2.124-7.265c0.117-2.399-0.364-4.554-1.424-6.404   C273.647,295.119,272.099,293.657,270.112,292.631z" style="fill:#352517;"/><path d="M291.101,258.641c-1.352-1.284-3.216-2.543-5.539-3.741l-13.422-6.915   c-1.555-0.803-2.996-1.03-4.273-0.669c-1.301,0.371-2.334,1.239-2.993,2.512c-0.666,1.287-0.762,2.639-0.281,3.909   c0.463,1.208,1.479,2.227,3.02,3.024l13.844,7.135c2.015,1.036,3.308,2.148,3.84,3.298c0.46,0.992,0.254,2.354-0.618,4.043   c-0.666,1.287-1.373,2.148-2.104,2.567c-0.697,0.395-1.417,0.522-2.251,0.388c-1.03-0.158-2.255-0.601-3.641-1.318l-13.728-7.07   c-1.534-0.793-2.962-1.026-4.218-0.693c-1.321,0.347-2.375,1.225-3.048,2.536c-0.659,1.277-0.752,2.625-0.271,3.895   c0.463,1.222,1.472,2.245,3.006,3.037l13.426,6.915c2.248,1.16,4.355,1.929,6.274,2.282c0.813,0.151,1.606,0.227,2.378,0.227   c1.163,0,2.272-0.172,3.319-0.511c1.743-0.563,3.367-1.613,4.829-3.13c1.373-1.421,2.667-3.302,3.847-5.597   c1.002-1.942,1.664-3.813,1.963-5.57c0.302-1.812,0.209-3.614-0.275-5.368C293.607,261.781,292.567,260.035,291.101,258.641z" style="fill:#352517;"/><path d="M313.45,219.775c-0.494-0.501-1.16-0.964-2.039-1.417l-5.347-2.756   c-1.304-0.673-2.413-0.933-3.473-0.793c-1.078,0.148-1.984,0.621-2.694,1.417c-0.522,0.583-1.023,1.342-1.489,2.251l-3.308,6.418   c-0.601,1.163-0.758,2.306-0.474,3.404c0.302,1.139,1.023,2.032,2.087,2.581c1.318,0.683,2.67,0.659,3.775-0.048   c0.879-0.549,1.64-1.476,2.337-2.824l1.452-2.818l2.011,1.036c-0.027,0.999-0.13,1.956-0.305,2.862   c-0.209,1.139-0.618,2.303-1.211,3.459c-1.15,2.231-2.697,3.549-4.733,4.022c-2.111,0.494-4.633-0.007-7.512-1.489   c-1.349-0.693-2.492-1.503-3.404-2.399c-0.872-0.858-1.51-1.771-1.894-2.711c-0.378-0.93-0.535-1.891-0.47-2.879   c0.062-1.002,0.374-2.063,0.933-3.147c0.535-1.036,1.109-1.795,1.702-2.255c0.597-0.467,1.187-0.772,1.747-0.906   c0.752-0.182,1.798-0.329,3.253-0.47c0.748-0.12,1.435-0.402,2.035-0.841c0.614-0.439,1.095-0.992,1.428-1.644   c0.583-1.129,0.704-2.368,0.347-3.586c-0.371-1.239-1.16-2.203-2.293-2.787c-0.937-0.48-2.087-0.693-3.449-0.676   c-1.308,0.021-2.691,0.333-4.111,0.923c-1.428,0.59-2.855,1.568-4.249,2.897c-1.386,1.318-2.622,3.024-3.676,5.069   c-1.27,2.461-2.056,4.897-2.341,7.231c-0.295,2.385-0.096,4.681,0.587,6.823c0.683,2.145,1.864,4.125,3.504,5.882   c1.599,1.719,3.597,3.202,5.937,4.407c2.382,1.229,4.774,1.997,7.111,2.275c0.704,0.086,1.4,0.127,2.087,0.127   c1.623,0,3.195-0.233,4.691-0.707c2.128-0.666,4.094-1.812,5.855-3.404c1.719-1.562,3.199-3.528,4.393-5.848   c1.016-1.963,1.74-3.936,2.155-5.855c0.415-1.905,0.604-4.029,0.556-6.322c-0.021-0.903-0.124-1.675-0.309-2.358   C314.425,221.079,314.023,220.358,313.45,219.775z" style="fill:#352517;"/><path d="M333.637,184.769c-0.851-0.436-2.148-0.714-4.07-0.868l-21.731-1.987   c-1.102-0.124-1.984-0.216-2.643-0.271c-0.776-0.065-1.555-0.051-2.323,0.045c-0.896,0.12-1.747,0.443-2.536,0.958   c-0.827,0.546-1.52,1.352-2.063,2.406c-0.539,1.043-0.789,2.073-0.752,3.054c0.041,0.947,0.285,1.84,0.734,2.663   c0.384,0.693,0.896,1.4,1.562,2.155l15.928,18.162c0.611,0.714,1.102,1.249,1.469,1.61c0.463,0.46,0.975,0.834,1.51,1.109   c0.614,0.316,1.277,0.474,1.963,0.474c0.529,0,1.067-0.093,1.61-0.281c1.222-0.419,2.166-1.229,2.739-2.337   c0.868-1.682,0.597-2.969,0.223-3.748c-0.374-0.786-1.146-1.805-2.426-3.216l-2.069-2.275l4.733-9.184l2.989,0.34   c0.014,0,0.027,0,0.045,0.003l1.864,0.134c0.855,0.055,1.531,0.027,2.056-0.076c0.645-0.124,1.239-0.384,1.767-0.772   c0.539-0.398,0.992-0.944,1.349-1.637c0.604-1.17,0.71-2.45,0.309-3.71C335.466,186.265,334.694,185.315,333.637,184.769z    M316.748,192.12l-2.004,3.885l-4.376-4.691L316.748,192.12z" style="fill:#352517;"/><path d="M353.707,151.41c-0.405-0.714-0.954-1.253-1.64-1.613c-0.59-0.302-1.465-0.477-2.924-0.587   c-1.242-0.096-2.649-0.086-4.3,0.034c-1.634,0.12-3.277,0.381-4.884,0.782c-0.388,0.096-0.762,0.202-1.126,0.323   c0.093-1.565-0.082-2.986-0.525-4.249c-0.793-2.244-2.454-4.029-4.939-5.309c-1.205-0.621-2.474-1.006-3.761-1.146   c-1.328-0.144-2.636-0.021-3.895,0.371c-1.253,0.388-2.392,1.009-3.339,1.802c-0.831,0.652-1.599,1.493-2.289,2.498   c-0.601,0.892-1.249,2.008-1.942,3.35l-4.736,9.191c-0.848,1.64-1.071,3.126-0.659,4.41c0.412,1.287,1.452,2.368,3.092,3.209   l21.477,11.068c1.095,0.566,2.135,0.851,3.102,0.851c0.36,0,0.71-0.041,1.047-0.12c0.937-0.216,2.238-0.834,3.12-2.546   c0.652-1.263,0.758-2.598,0.302-3.875c-0.446-1.236-1.472-2.275-3.048-3.085l-7.406-3.816l0.216-0.415c0-0.003,0-0.003,0.003-0.007   c0.408-0.796,0.834-1.387,1.27-1.761c0.395-0.34,0.988-0.614,1.774-0.813c0.927-0.237,2.255-0.405,3.964-0.501l4.935-0.319   c1.205-0.079,2.124-0.158,2.773-0.237c0.834-0.103,1.616-0.347,2.313-0.724c0.841-0.446,1.517-1.157,2.004-2.107   c0.408-0.779,0.614-1.582,0.614-2.392C354.294,152.852,354.094,152.09,353.707,151.41z M330.328,152.543   c-0.216,0.909-0.642,1.987-1.27,3.205l-1.805,3.501l-4.547-2.341l1.884-3.655l0,0c1.235-2.399,1.84-3.013,1.997-3.144   c0.388-0.326,0.789-0.508,1.239-0.556c0.436-0.051,0.875,0.041,1.342,0.281c0.604,0.309,0.982,0.652,1.129,1.033   C330.473,151.297,330.483,151.867,330.328,152.543z" style="fill:#352517;"/><path d="M121.818,292.631h-0.003c-3.291-1.695-6.359-1.623-9.05-0.233c-1.256,0.652-2.502,1.565-3.696,2.708   c-1.146,1.084-2.33,2.344-3.535,3.758c-0.94,1.067-1.627,1.822-2.059,2.268c-0.367,0.378-0.782,0.728-1.242,1.036   c-0.357,0.24-0.686,0.384-1.006,0.439c-0.127,0.017-0.299,0.027-0.583-0.12c-0.165-0.086-0.546-0.281-0.686-1.225   c-0.124-0.851,0.103-1.85,0.68-2.965c0.807-1.565,1.462-2.025,1.778-2.162c0.721-0.302,1.63-0.439,2.749-0.415   c1.136-0.017,2.018-0.141,2.684-0.367c0.94-0.316,1.695-1.016,2.255-2.09c0.594-1.16,0.656-2.419,0.178-3.638   c-0.456-1.16-1.222-2.025-2.286-2.574c-0.975-0.501-2.093-0.765-3.329-0.789c-1.187-0.017-2.495,0.244-3.844,0.796   c-1.328,0.542-2.625,1.417-3.864,2.605c-1.205,1.17-2.303,2.708-3.26,4.571c-1.208,2.344-1.918,4.613-2.114,6.737   c-0.206,2.248,0.154,4.276,1.071,6.03c0.927,1.771,2.341,3.154,4.197,4.111c1.942,1.002,3.878,1.359,5.738,1.071   c1.781-0.281,3.473-1.036,5.024-2.241c1.417-1.095,2.931-2.588,4.51-4.441c1.067-1.263,1.963-2.248,2.704-2.958   c0.57-0.549,1.139-0.906,1.747-1.091c0.268-0.082,0.7-0.148,1.366,0.196c0.453,0.233,0.995,0.649,1.187,1.802   c0.175,1.067-0.079,2.275-0.762,3.597c-0.494,0.957-1.019,1.637-1.562,2.025c-0.529,0.374-1.06,0.601-1.579,0.669   c-0.676,0.089-1.489,0.086-2.413,0c-1.174-0.124-2.159-0.034-3.03,0.281c-1.006,0.367-1.802,1.085-2.303,2.059   c-0.597,1.157-0.704,2.389-0.309,3.569c0.391,1.157,1.17,2.063,2.251,2.619c1.198,0.614,2.581,0.927,4.125,0.927   c0.357,0,0.724-0.017,1.102-0.051c1.929-0.172,3.734-0.783,5.381-1.819c2.217-1.417,4.129-3.665,5.687-6.685   c1.294-2.505,2.008-4.949,2.121-7.262c0.12-2.402-0.36-4.558-1.424-6.407C125.353,295.119,123.805,293.657,121.818,292.631z" style="fill:#352517;"/><path d="M142.808,258.641c-1.359-1.287-3.223-2.546-5.536-3.737l-13.426-6.922   c-1.551-0.8-2.993-1.019-4.266-0.666c-1.301,0.367-2.337,1.235-3,2.516c-0.659,1.29-0.758,2.643-0.281,3.899   c0.46,1.215,1.476,2.234,3.024,3.03l13.841,7.135c2.018,1.036,3.308,2.148,3.844,3.302c0.46,0.988,0.251,2.347-0.621,4.039   c-0.666,1.29-1.373,2.152-2.104,2.567c-0.683,0.391-1.411,0.522-2.248,0.391c-1.033-0.161-2.258-0.604-3.645-1.321l-13.728-7.073   c-1.538-0.789-2.951-1.023-4.221-0.69c-1.318,0.35-2.368,1.229-3.041,2.536c-0.659,1.277-0.752,2.625-0.271,3.899   c0.463,1.225,1.479,2.244,3.01,3.03l13.422,6.919c2.248,1.16,4.359,1.929,6.274,2.286c0.813,0.148,1.606,0.223,2.378,0.223   c1.16,0,2.272-0.168,3.322-0.511c1.743-0.563,3.367-1.616,4.829-3.133c1.373-1.424,2.667-3.308,3.847-5.591   c1.009-1.953,1.664-3.83,1.956-5.573c0.302-1.819,0.213-3.621-0.275-5.368C145.313,261.778,144.273,260.031,142.808,258.641z" style="fill:#352517;"/><path d="M165.163,219.781c-0.494-0.505-1.163-0.971-2.045-1.421l-5.347-2.759   c-1.304-0.669-2.44-0.927-3.47-0.793c-1.067,0.144-1.997,0.635-2.694,1.414c-0.522,0.587-1.009,1.325-1.489,2.255l-3.305,6.411   c-0.607,1.177-0.765,2.327-0.477,3.404c0.299,1.143,1.019,2.035,2.083,2.588c1.328,0.683,2.667,0.659,3.782-0.048   c0.872-0.549,1.634-1.476,2.33-2.824l1.452-2.818l2.011,1.036c-0.027,0.999-0.13,1.956-0.299,2.855   c-0.216,1.153-0.625,2.32-1.218,3.466c-1.15,2.231-2.697,3.549-4.733,4.022c-2.1,0.498-4.637-0.007-7.512-1.489   c-1.345-0.693-2.488-1.5-3.401-2.402c-0.865-0.851-1.503-1.764-1.894-2.708c-0.378-0.923-0.535-1.888-0.474-2.866   c0.065-1.019,0.381-2.083,0.937-3.161c0.532-1.033,1.105-1.795,1.702-2.255c0.601-0.467,1.191-0.772,1.75-0.906   c0.745-0.182,1.795-0.329,3.253-0.47c0.745-0.12,1.428-0.402,2.028-0.837c0.611-0.436,1.091-0.988,1.431-1.647   c0.577-1.129,0.7-2.365,0.347-3.579c-0.364-1.242-1.153-2.207-2.289-2.794c-0.93-0.48-2.087-0.693-3.459-0.68   c-1.304,0.024-2.687,0.336-4.108,0.927c-1.421,0.59-2.848,1.565-4.249,2.897c-1.386,1.321-2.622,3.027-3.672,5.066   c-1.266,2.457-2.056,4.894-2.344,7.241c-0.292,2.389-0.093,4.681,0.59,6.823c0.686,2.142,1.867,4.118,3.504,5.879   c1.596,1.716,3.593,3.199,5.937,4.403c2.385,1.232,4.781,1.997,7.111,2.275c0.707,0.086,1.404,0.127,2.093,0.127   c1.623,0,3.192-0.237,4.681-0.707c2.131-0.666,4.101-1.812,5.862-3.404c1.716-1.555,3.192-3.521,4.389-5.848   c1.006-1.946,1.733-3.916,2.159-5.858c0.412-1.891,0.597-4.012,0.553-6.315c-0.021-0.909-0.127-1.689-0.312-2.354   C166.134,221.079,165.733,220.355,165.163,219.781z" style="fill:#352517;"/><path d="M185.35,184.772c-0.848-0.439-2.148-0.717-4.074-0.875l-21.728-1.984   c-1.105-0.124-1.984-0.216-2.649-0.271c-0.776-0.065-1.555-0.051-2.313,0.045c-0.899,0.117-1.754,0.439-2.543,0.954   c-0.824,0.542-1.517,1.349-2.063,2.409c-0.539,1.047-0.793,2.076-0.755,3.054c0.041,0.958,0.288,1.853,0.734,2.649   c0.378,0.693,0.889,1.404,1.565,2.172l15.928,18.162c0.614,0.714,1.109,1.253,1.462,1.599c0.463,0.46,0.975,0.837,1.517,1.115   c0.618,0.316,1.277,0.477,1.963,0.477c0.525,0,1.064-0.096,1.603-0.285c1.222-0.419,2.172-1.225,2.746-2.337   c0.868-1.678,0.597-2.969,0.22-3.751c-0.374-0.782-1.146-1.805-2.423-3.212l-2.069-2.272l4.733-9.184l2.982,0.336   c0.017,0,0.031,0.003,0.048,0.003l1.867,0.134c0.844,0.055,1.52,0.027,2.059-0.076c0.642-0.124,1.239-0.388,1.747-0.765   c0.546-0.391,1.006-0.944,1.366-1.64c0.601-1.17,0.707-2.45,0.309-3.706C187.179,186.269,186.407,185.318,185.35,184.772z    M168.454,192.12l-2.004,3.885l-4.376-4.691L168.454,192.12z" style="fill:#352517;"/><path d="M203.779,149.804c-0.59-0.305-1.465-0.48-2.927-0.594c-1.225-0.093-2.677-0.082-4.304,0.034   c-1.634,0.12-3.277,0.381-4.88,0.782c-0.388,0.096-0.762,0.202-1.126,0.323c0.093-1.565-0.082-2.986-0.529-4.245   c-0.789-2.241-2.447-4.029-4.935-5.313c-1.205-0.618-2.471-1.006-3.761-1.146c-1.328-0.141-2.632-0.021-3.888,0.371   c-1.26,0.388-2.402,1.009-3.346,1.805c-0.841,0.659-1.61,1.496-2.286,2.492c-0.607,0.896-1.256,2.011-1.946,3.353l-4.739,9.194   c-0.848,1.64-1.067,3.126-0.656,4.417c0.415,1.284,1.455,2.361,3.089,3.202l21.477,11.068c1.095,0.563,2.135,0.848,3.102,0.848   c0.364,0,0.714-0.041,1.054-0.12c0.937-0.216,2.238-0.837,3.116-2.546c0.652-1.266,0.758-2.605,0.302-3.868   c-0.443-1.239-1.469-2.279-3.051-3.092l-7.403-3.813l0.216-0.419c0-0.003,0-0.003,0-0.003c0.412-0.8,0.837-1.39,1.27-1.761   c0.395-0.343,0.992-0.618,1.774-0.817c0.933-0.237,2.265-0.405,3.964-0.501l4.942-0.319c1.201-0.079,2.128-0.158,2.759-0.237   c0.837-0.1,1.623-0.343,2.323-0.721c0.844-0.45,1.52-1.16,2.011-2.117c0.402-0.776,0.604-1.575,0.604-2.375   c0-0.827-0.199-1.596-0.594-2.279C205.001,150.69,204.452,150.148,203.779,149.804z M182.031,152.553   c-0.202,0.885-0.628,1.96-1.266,3.195l-1.805,3.501l-4.54-2.341l1.881-3.652c1.242-2.409,1.843-3.02,1.991-3.144   c0.391-0.329,0.796-0.508,1.239-0.559c0.446-0.051,0.889,0.041,1.352,0.281c0.597,0.305,0.978,0.655,1.126,1.019   C182.182,151.297,182.192,151.867,182.031,152.553z" style="fill:#352517;"/></g><g id="Layer_1"/></svg>