<svg xmlns="http://www.w3.org/2000/svg" viewBox="0 0 128 128"><defs><style>.cls-1{isolation:isolate;}.cls-2{mix-blend-mode:multiply;}.Graphic-Style-2,.cls-3{fill:#302a27;}.cls-4{fill:#bcda7a;}.cls-5{fill:#78c17b;}.cls-6{opacity:0.12;}.Graphic-Style-2,.cls-7{stroke:#302a27;stroke-linecap:round;stroke-linejoin:round;stroke-width:2px;}.cls-7{fill:none;}.cls-8{opacity:0.24;}</style></defs><title>broccoli</title><g class="cls-1"><g id="icons" class="cls-2"><path class="cls-3" d="M57,111a2,2,0,0,1-2-2V97c0-8.923-.948-14.513-6.15-20.98A17.784,17.784,0,0,1,43,77a18.058,18.058,0,0,1-15.209-8.381A13.933,13.933,0,0,1,17.2,57.3,13.706,13.706,0,0,1,17,55a13.994,13.994,0,0,1,9.543-13.265,18,18,0,0,1,10.492-9.7A13.018,13.018,0,0,1,50,20a12.8,12.8,0,0,1,3.347.444,14.99,14.99,0,0,1,21.307,0A12.8,12.8,0,0,1,78,20a13.091,13.091,0,0,1,2.161.178,12.943,12.943,0,0,1,10.8,11.858,18,18,0,0,1,10.492,9.7,13.99,13.99,0,0,1-1.248,26.884A18,18,0,0,1,80.781,76.5C75.89,82.789,75,88.251,75,97v12a2,2,0,0,1-2,2Z"/><path class="cls-3" d="M64,18a12.95,12.95,0,0,1,10.04,4.75A10.852,10.852,0,0,1,78,22a11.129,11.129,0,0,1,1.83.15A10.992,10.992,0,0,1,89,33c0,.17-.02.34-.03.52a16.019,16.019,0,0,1,11,9.86,11.989,11.989,0,0,1-1.02,23.45A16.01,16.01,0,0,1,85,75a16.18,16.18,0,0,1-4.95-.78C73.77,81.76,73,88.22,73,97v12H57V97c0-9-.81-15.58-7.54-23.37A15.847,15.847,0,0,1,43,75a16.01,16.01,0,0,1-13.95-8.17,11.979,11.979,0,0,1-9.88-9.85A11.759,11.759,0,0,1,19,55a12,12,0,0,1,9.03-11.62,16.019,16.019,0,0,1,11-9.86c-.01-.18-.03-.35-.03-.52A10.994,10.994,0,0,1,50,22a10.852,10.852,0,0,1,3.96.75A12.95,12.95,0,0,1,64,18m4,65a34.552,34.552,0,0,1,6.08-12.33c-.29-.28-.58-.56-.85-.86a14.994,14.994,0,0,1-3.99,2.23A63.617,63.617,0,0,0,68,83m-6,4s2-4.68,1.09-14.03a14.68,14.68,0,0,1-4.21-.88C60.3,76.3,62,82.33,62,87m2-73a16.918,16.918,0,0,0-11.25,4.257A14.78,14.78,0,0,0,50,18,15.024,15.024,0,0,0,35.191,30.607a20.012,20.012,0,0,0-10.11,9.535A15.992,15.992,0,0,0,15,55a15.737,15.737,0,0,0,.228,2.657,15.915,15.915,0,0,0,11.32,12.7A20.058,20.058,0,0,0,43,79a19.824,19.824,0,0,0,5.112-.665C52.248,83.922,53,88.9,53,97v12a4,4,0,0,0,4,4H73a4,4,0,0,0,4-4V97c0-7.97.71-12.838,4.622-18.287a19.988,19.988,0,0,0,19.829-8.35,15.991,15.991,0,0,0,1.468-30.221,20.01,20.01,0,0,0-10.107-9.533A14.934,14.934,0,0,0,80.489,18.2,15.2,15.2,0,0,0,78,18a14.78,14.78,0,0,0-2.75.257A16.918,16.918,0,0,0,64,14Z"/><g id="_Group_" data-name="&lt;Group&gt;"><path class="cls-4" d="M74.08,70.67a16.139,16.139,0,0,0,5.97,3.55C73.77,81.76,73,88.22,73,97v12H57V97c0-9-.81-15.58-7.54-23.37a16.059,16.059,0,0,0,5.31-3.82,15.134,15.134,0,0,0,4.11,2.28C60.3,76.3,62,82.33,62,87c0,0,2-4.68,1.09-14.03.3.02.6.03.91.03a14.724,14.724,0,0,0,5.24-.96A63.617,63.617,0,0,0,68,83,34.552,34.552,0,0,1,74.08,70.67Z"/><path class="cls-5" d="M99.97,43.38a11.989,11.989,0,0,1-1.02,23.45A16.01,16.01,0,0,1,85,75a15.828,15.828,0,0,1-10.92-4.33c-.29-.28-.58-.56-.85-.86a14.991,14.991,0,0,1-3.99,2.23A14.724,14.724,0,0,1,64,73c-.31,0-.61-.01-.91-.03a14.681,14.681,0,0,1-4.21-.88,15.134,15.134,0,0,1-4.11-2.28,16.059,16.059,0,0,1-5.31,3.82A15.847,15.847,0,0,1,43,75a16.01,16.01,0,0,1-13.95-8.17,11.979,11.979,0,0,1-9.88-9.85A11.757,11.757,0,0,1,19,55a12,12,0,0,1,9.03-11.62,16.019,16.019,0,0,1,11-9.86c-.01-.18-.03-.35-.03-.52A10.994,10.994,0,0,1,50,22a10.852,10.852,0,0,1,3.96.75,12.986,12.986,0,0,1,20.08,0A10.852,10.852,0,0,1,78,22a11.113,11.113,0,0,1,1.83.15A10.992,10.992,0,0,1,89,33c0,.17-.02.34-.03.52A16.019,16.019,0,0,1,99.97,43.38Z"/><g class="cls-6"><path class="Graphic-Style-2" d="M109,55A11.992,11.992,0,0,1,98.95,66.83a15.972,15.972,0,0,1-25.72,2.98,14.948,14.948,0,0,1-18.46,0,15.972,15.972,0,0,1-25.72-2.98,11.979,11.979,0,0,1-9.88-9.85,14.643,14.643,0,0,1,6.9.88c3.02,1.31,5.34,3.79,7.9,5.86s5.73,3.85,8.98,3.32a25.683,25.683,0,0,0,4.68-1.69,15.858,15.858,0,0,1,9.75-.41c2.86.81,5.76,2.44,8.62,1.64,1.54-.43,2.82-1.53,4.32-2.08,3.25-1.17,6.77.4,9.9,1.84s6.83,2.78,9.9,1.21c1.69-.87,2.85-2.46,4.14-3.85a22.6,22.6,0,0,1,8.7-5.81,2.88,2.88,0,0,0,1.48-.89,2.4,2.4,0,0,0,.17-1.9,9.407,9.407,0,0,0-4.26-5.86c-2-1.21-4.71-1.95-5.39-4.19-.19-.64-.17-1.33-.36-1.97-.66-2.21-3.29-3.01-5.5-3.7s-4.74-2.19-4.51-4.49c.06-.67.38-1.29.45-1.96.17-1.6-1-2.98-1.96-4.27a21.385,21.385,0,0,1-2.77-4.99,11.187,11.187,0,0,1-.48-1.52A10.992,10.992,0,0,1,89,33c0,.17-.02.34-.03.52a16.019,16.019,0,0,1,11,9.86A12,12,0,0,1,109,55Z"/><path class="Graphic-Style-2" d="M80.05,74.22C73.77,81.76,73,88.22,73,97v12H57v-7.61a6.74,6.74,0,0,1,2.89-.12c1.62.3,3.08,1.15,4.66,1.61s3.49.45,4.63-.74,1.08-3.07.69-4.67-1.03-3.2-.83-4.83c.2-1.59,1.19-2.96,1.7-4.48a29.242,29.242,0,0,0,.8-5.37c.46-3.21,2.9-6.28,5.07-8.69.32-.35.59-.68.86-1A15.593,15.593,0,0,0,80.05,74.22Z"/></g><path class="cls-7" d="M80.05,74.22A16.18,16.18,0,0,0,85,75a16.01,16.01,0,0,0,13.95-8.17,11.989,11.989,0,0,0,1.02-23.45,16.019,16.019,0,0,0-11-9.86c.01-.18.03-.35.03-.52a10.992,10.992,0,0,0-9.17-10.85A11.113,11.113,0,0,0,78,22a10.852,10.852,0,0,0-3.96.75,12.986,12.986,0,0,0-20.08,0A10.852,10.852,0,0,0,50,22,10.994,10.994,0,0,0,39,33c0,.17.02.34.03.52a16.019,16.019,0,0,0-11,9.86A12,12,0,0,0,19,55a11.757,11.757,0,0,0,.17,1.98,11.979,11.979,0,0,0,9.88,9.85A16.01,16.01,0,0,0,43,75a15.847,15.847,0,0,0,6.46-1.37,16.059,16.059,0,0,0,5.31-3.82,15.134,15.134,0,0,0,4.11,2.28,14.681,14.681,0,0,0,4.21.88c.3.02.6.03.91.03a14.724,14.724,0,0,0,5.24-.96,14.991,14.991,0,0,0,3.99-2.23c.27.3.56.58.85.86A16.139,16.139,0,0,0,80.05,74.22Z"/><path class="cls-7" d="M49.46,73.63C56.19,81.42,57,88,57,97v12H73V97c0-8.78.77-15.24,7.05-22.78"/><path class="cls-7" d="M63.09,72.97C64,82.32,62,87,62,87c0-4.67-1.7-10.7-3.12-14.91"/><path class="cls-7" d="M69.24,72.04A63.617,63.617,0,0,0,68,83a34.552,34.552,0,0,1,6.08-12.33"/><g class="cls-8"><path class="cls-7" d="M42,55a8,8,0,0,1,16,0"/><path class="cls-7" d="M69,41.5a5.5,5.5,0,0,1,11,0"/></g></g></g></g></svg>